<svg xmlns="http://www.w3.org/2000/svg" version="1.1" xmlns:xlink="http://www.w3.org/1999/xlink" xmlns:svgjs="http://svgjs.dev/svgjs" width="1440" height="560" preserveAspectRatio="none" viewBox="0 0 1440 560"><g mask="url(&quot;#SvgjsMask1000&quot;)" fill="none"><rect width="1440" height="560" x="0" y="0"></rect><path d="M124.81 13.91 L0.87 79.67 103.73 146.47 z" fill="rgba(28, 83, 142, 0.4)" class="triangle-float2"></path><path d="M1372.852,684.379C1429.467,682.37,1480.095,651.586,1508.786,602.737C1537.874,553.211,1542.242,492.744,1515.151,442.098C1486.46,388.46,1433.585,345.192,1372.852,348.609C1316.029,351.806,1284.431,407.488,1255.824,456.689C1226.988,506.283,1192.892,561.991,1219.117,613.014C1246.798,666.87,1312.337,686.526,1372.852,684.379" fill="rgba(28, 83, 142, 0.4)" class="triangle-float2"></path><path d="M1217.3475938524646 189.81716976747867 L1090.9199918769012 39.09899533054525 986.9678216835875 123.2778029690607 z" fill="rgba(28, 83, 142, 0.4)" class="triangle-float1"></path><path d="M717.3475938524646 189.81716976747867L690.9199918769012 39.09899533054525 586.9678216835875 123.2778029690607z" fill="rgba(28, 83, 142, 0.4)" class="triangle-float1"></path><path d="M1111.42,418.438C1126.905,419.477,1143.064,414.748,1151.521,401.734C1160.69,387.624,1161.121,369.316,1152.871,354.649C1144.463,339.701,1128.547,329.546,1111.42,330.442C1095.509,331.274,1083.725,344.25,1076.857,358.627C1070.945,371.003,1072.804,385.038,1079.667,396.914C1086.524,408.78,1097.746,417.521,1111.42,418.438" fill="rgba(28, 83, 142, 0.4)" class="triangle-float2"></path><path d="M50.0912890024753 482.7699290116494 L250.2593210123545 326.90232348147606 250.2236834723019 542.6018970017702 z" fill="rgba(28, 83, 142, 0.4)" class="triangle-float3"></path></g><defs><mask id="SvgjsMask1000"><rect width="1440" height="560" fill="#ffffff"></rect></mask><style>
                @keyframes float1 {
                    0%{transform: translate(0, 0)}
                    50%{transform: translate(-10px, 0)}
                    100%{transform: translate(0, 0)}
                }

                .triangle-float1 {
                    animation: float1 5s infinite;
                }

                @keyframes float2 {
                    0%{transform: translate(0, 0)}
                    50%{transform: translate(-5px, -5px)}
                    100%{transform: translate(0, 0)}
                }

                .triangle-float2 {
                    animation: float2 4s infinite;
                }

                @keyframes float3 {
                    0%{transform: translate(0, 0)}
                    50%{transform: translate(0, -10px)}
                    100%{transform: translate(0, 0)}
                }

                .triangle-float3 {
                    animation: float3 6s infinite;
                }
            </style></defs></svg>